<svg xmlns="http://www.w3.org/2000/svg" viewBox="0 0 835.2 267.4"><defs><style>.cls-1{fill:#fff;fill-rule:evenodd}</style></defs><g id="Layer_2" data-name="Layer 2"><g id="Layer_1-2" data-name="Layer 1"><g id="Logos"><g id="Appstore"><rect id="backfround-copy" width="835.2" height="267.42" rx="20.9"/><path id="App-Store" class="cls-1" d="M312.5 204.5h13.7l-29.9-82.2h-13.9l-30 82.2h13.3l7.6-21.8h31.6Zm-23.8-67.3h.9l12.1 34.8h-25.1Zm73.8 4.2c-8.5 0-15.9 4.2-19.7 11.3h-.9v-10.3H330v82.2h12.4v-29.5h1c3.2 6.5 10.3 10.4 19.2 10.4 15.8 0 25.9-12.3 25.9-32.1s-10.1-32-26-32Zm-3.5 53.1c-10.3 0-16.8-8.1-16.8-21s6.5-21.1 16.9-21.1 16.7 7.9 16.7 21-6.3 21.1-16.8 21.1Zm67.6-53.1c-8.5 0-15.8 4.2-19.6 11.3h-1v-10.3h-11.9v82.2h12.4v-29.5h1c3.3 6.5 10.3 10.4 19.3 10.4 15.8 0 25.8-12.3 25.8-32.1s-10-32-26-32Zm-3.5 53.1c-10.3 0-16.8-8.1-16.8-21s6.5-21.1 16.9-21.1 16.7 7.9 16.7 21-6.2 21.1-16.8 21.1Zm55.7-12.1c.9 14.7 13.3 24.1 31.7 24.1s32-9.9 32-25.6c0-12.4-7.1-19.2-24.1-23.1l-9.1-2.3c-10.8-2.5-15.2-5.8-15.2-11.7 0-7.4 6.8-12.3 17-12.3s16.3 4.8 17.5 12.4h12.5c-.7-13.9-13-23.6-29.9-23.6S481 130 481 144.7c0 12 6.9 19.2 21.9 22.7l10.7 2.6c11 2.5 15.8 6.3 15.8 12.6s-7.6 12.5-17.9 12.5-18.8-4.9-19.9-12.7Zm74.3-55v15.3h-10.3V153h10.3v35.1c0 11.9 5.5 16.7 19.2 16.7a33 33 0 0 0 6.6-.6V194a33.3 33.3 0 0 1-4.6.3c-6.1 0-8.8-2.9-8.8-9.4V153h14v-10.3h-14v-15.3Zm57.1 67.4c-10.8 0-16.8-7.8-16.8-21.4s6-21.3 16.8-21.3 16.7 7.9 16.7 21.3-6.1 21.4-16.7 21.4Zm0 10.9c18.2 0 29.5-12.1 29.5-32.3s-11.3-32.2-29.5-32.2-29.6 12.2-29.6 32.2 11.2 32.3 29.6 32.3Zm35.1-1.2h12.4v-36.7c0-8.7 6.6-14.5 15.9-14.5a37.5 37.5 0 0 1 6.8.7v-12.1a29.2 29.2 0 0 0-5.4-.5c-8.2 0-15.1 4.5-16.9 10.5h-.9v-9.5h-11.9Zm63-52.8c9.1 0 15.1 6.3 15.4 16H692c.7-9.7 7.1-16 16.3-16Zm15.3 36c-2.3 4.9-7.4 7.6-14.9 7.6-9.9 0-16.3-6.9-16.7-17.8v-.7h44.3v-4.3c0-19.5-10.6-31.3-28-31.3s-28.8 12.6-28.8 32.5 10.9 32 28.9 32c14.3 0 24.3-6.8 27.1-18Z"/><g id="logo_apple" data-name="logo apple"><path id="Fill-2" class="cls-1" d="M169.3 134.9c-.2-19.9 16.4-29.6 17.2-30-9.4-13.6-24-15.5-29.1-15.6-12.3-1.3-24.1 7.2-30.4 7.2s-15.9-7.1-26.3-6.9a38.7 38.7 0 0 0-32.6 19.7c-14.1 24.2-3.6 59.8 9.9 79.3 6.8 9.6 14.7 20.3 25 19.9s13.9-6.4 26.1-6.4 15.7 6.4 26.2 6.2 17.7-9.7 24.2-19.3a78.5 78.5 0 0 0 11.1-22.4c-.3 0-21.1-7.9-21.3-31.7"/><path id="Fill-3" class="cls-1" d="M149.4 76.4c5.4-6.7 9.1-15.9 8.1-25.2-7.9.3-17.7 5.4-23.4 12s-9.5 15.3-8.3 24.3c8.8.6 17.9-4.5 23.6-11.1"/></g><path id="Disponibleen" d="M266.9 99.6a1.3 1.3 0 0 1-.9-.4 1.1 1.1 0 0 1-.4-.9V62a1.3 1.3 0 0 1 .4-1 1.3 1.3 0 0 1 .9-.4h12.6c5.7 0 9.8 1.3 12.3 3.8s3.8 6.3 3.8 11.3c.1 1.1.1 2.5.1 4.3s0 3.3-.1 4.4a19 19 0 0 1-1.7 8.6 9.6 9.6 0 0 1-5 4.9 21.1 21.1 0 0 1-9.1 1.7Zm12.6-4.7a15.7 15.7 0 0 0 6.3-1 7.5 7.5 0 0 0 3.4-3.4 20.4 20.4 0 0 0 1.1-6.3c.1-2.2.1-3.6.1-4.2s0-1.9-.1-4.1q-.2-5.6-2.7-8.1c-1.7-1.7-4.5-2.6-8.3-2.6h-8.4v29.7Zm24.8-29.7a1 1 0 0 1-.9-.4 1.3 1.3 0 0 1-.4-.9V61a1.8 1.8 0 0 1 .4-.9 1 1 0 0 1 .9-.4h3.3a1.3 1.3 0 0 1 1 .4 1.8 1.8 0 0 1 .4.9v2.9a1.3 1.3 0 0 1-.4.9 1.3 1.3 0 0 1-1 .4Zm.5 34.4a1.8 1.8 0 0 1-1-.4 1.4 1.4 0 0 1-.3-.9V71.9a1.6 1.6 0 0 1 .3-.9 1.7 1.7 0 0 1 1-.3h2.4a1.7 1.7 0 0 1 1 .3 1.6 1.6 0 0 1 .3.9v26.4a1.4 1.4 0 0 1-.3.9 1.8 1.8 0 0 1-1 .4Zm22.1.5a15.7 15.7 0 0 1-6.5-1.2 11.8 11.8 0 0 1-4-2.9 5.4 5.4 0 0 1-1.3-2.7 1.2 1.2 0 0 1 .4-.8l.9-.3h2.9c.1 0 .3.2.5.5a10.9 10.9 0 0 0 2.9 2.4 8.9 8.9 0 0 0 4.3.9 9.5 9.5 0 0 0 4.8-1.1 3.6 3.6 0 0 0 1.9-3.2 2.9 2.9 0 0 0-.8-2.2 6.4 6.4 0 0 0-2.6-1.5 36.8 36.8 0 0 0-5.5-1.5c-3.2-.7-5.5-1.7-6.8-3.1a6.6 6.6 0 0 1-2.1-5.1 6.8 6.8 0 0 1 1.3-4 8.5 8.5 0 0 1 3.6-3.1 13.4 13.4 0 0 1 5.8-1.2 14.1 14.1 0 0 1 6.1 1.2 9.9 9.9 0 0 1 3.7 2.7 4.2 4.2 0 0 1 1.3 2.6 1.4 1.4 0 0 1-1.2 1.2h-2.2a1.1 1.1 0 0 1-1.1-.6l-1.6-1.7a4.8 4.8 0 0 0-1.9-1 9 9 0 0 0-3.1-.4 7.2 7.2 0 0 0-4.2 1.1 4 4 0 0 0-1.4 3.1 3.1 3.1 0 0 0 .6 1.9 4.5 4.5 0 0 0 2.4 1.5 27.2 27.2 0 0 0 5.1 1.5c3.6.7 6.1 1.8 7.6 3.1a7.4 7.4 0 0 1 .8 9.6 8.8 8.8 0 0 1-4.1 3.1 18 18 0 0 1-6.5 1.2Zm19.9 10a1.2 1.2 0 0 1-.9-.3 1.2 1.2 0 0 1-.4-1V71.9a1 1 0 0 1 .4-.9 1.2 1.2 0 0 1 .9-.3h2.3a1.5 1.5 0 0 1 1 .3 1.2 1.2 0 0 1 .3.9v2.5c2.2-2.9 5.3-4.3 9.3-4.3s6.8 1.2 8.8 3.7a15.1 15.1 0 0 1 3.1 9.4 9.8 9.8 0 0 1 .1 1.9 9.2 9.2 0 0 1-.1 1.9 15.1 15.1 0 0 1-3.1 9.4c-2 2.5-4.9 3.7-8.8 3.7s-7.1-1.4-9.1-4.2v12.9a1.3 1.3 0 0 1-.4 1 1.2 1.2 0 0 1-.9.3Zm11.8-14.3c2.7 0 4.7-.9 5.9-2.5a12 12 0 0 0 2-6.6 7.1 7.1 0 0 0 .1-1.6c0-7.1-2.7-10.7-8-10.7a7 7 0 0 0-5.9 2.6 10.7 10.7 0 0 0-2.1 6.1c0 .4-.1 1.1-.1 2.2s.1 1.7.1 2.1a9.3 9.3 0 0 0 2.2 5.9 6.9 6.9 0 0 0 5.8 2.5Zm32 4.3c-4.1 0-7.3-1.1-9.5-3.4s-3.4-5.4-3.6-9.2v-4.8a13.9 13.9 0 0 1 3.6-9.2c2.3-2.3 5.4-3.4 9.5-3.4s7.2 1.1 9.4 3.4a13 13 0 0 1 3.6 9.2 14.5 14.5 0 0 1 0 4.8 13.4 13.4 0 0 1-3.5 9.2c-2.2 2.3-5.4 3.4-9.5 3.4Zm0-4.2a7.4 7.4 0 0 0 5.7-2.2c1.4-1.5 2.1-3.7 2.2-6.5a11 11 0 0 0 .1-2.1 11 11 0 0 0-.1-2.1c-.1-2.8-.8-5-2.2-6.5a8.5 8.5 0 0 0-11.4 0 9.8 9.8 0 0 0-2.3 6.5v4.2a9.8 9.8 0 0 0 2.3 6.5 7.4 7.4 0 0 0 5.7 2.2Zm21.5 3.7a1.3 1.3 0 0 1-.9-.4 1.1 1.1 0 0 1-.4-.9V71.9a1.2 1.2 0 0 1 1.3-1.2h2.4a1.5 1.5 0 0 1 1 .3 1.2 1.2 0 0 1 .3.9v2.5a12 12 0 0 1 3.9-3.2 12.8 12.8 0 0 1 5.5-1.1c3.6 0 6.4 1.1 8.4 3.4a13.2 13.2 0 0 1 3 9v15.8a1.4 1.4 0 0 1-1.3 1.3h-2.6a1.3 1.3 0 0 1-.9-.4 1.1 1.1 0 0 1-.4-.9V82.9c0-2.7-.6-4.8-2-6.2a6.9 6.9 0 0 0-5.6-2.3 7.5 7.5 0 0 0-5.7 2.3 8.8 8.8 0 0 0-2.1 6.2v15.4a1.1 1.1 0 0 1-.4.9 1.3 1.3 0 0 1-.9.4Zm33.4-34.4a1.2 1.2 0 0 1-.9-.4 1.3 1.3 0 0 1-.4-.9V61a1.8 1.8 0 0 1 .4-.9 1.2 1.2 0 0 1 .9-.4h3.3a1.3 1.3 0 0 1 1 .4 1.2 1.2 0 0 1 .4.9v2.9a1 1 0 0 1-.4.9 1.3 1.3 0 0 1-1 .4Zm.5 34.4a1.3 1.3 0 0 1-.9-.4 1.1 1.1 0 0 1-.4-.9V71.9a1.2 1.2 0 0 1 1.3-1.2h2.5a1.1 1.1 0 0 1 1.2 1.2v26.4a1.4 1.4 0 0 1-.3.9 1.8 1.8 0 0 1-.9.4Zm26.4.5a11.1 11.1 0 0 1-9.3-4.2v2.4a1.4 1.4 0 0 1-.3.9 1.8 1.8 0 0 1-.9.4h-2.4a1.3 1.3 0 0 1-.9-.4 1.1 1.1 0 0 1-.4-.9V61.4a1.2 1.2 0 0 1 .4-1 1.2 1.2 0 0 1 .9-.3h2.5a1.3 1.3 0 0 1 1 .4 1.2 1.2 0 0 1 .3.9v12.8c2.1-2.7 5.1-4.1 9.1-4.1s6.9 1.3 8.8 3.8a15.4 15.4 0 0 1 3.1 9.5 14.5 14.5 0 0 1 0 3.4 15.4 15.4 0 0 1-3.1 9.5c-1.9 2.5-4.9 3.8-8.8 3.8Zm-1.1-4.3c2.7 0 4.7-.9 5.9-2.5a11.2 11.2 0 0 0 2-6.6 7.1 7.1 0 0 0 .1-1.6c0-7.1-2.7-10.7-8-10.7a7.2 7.2 0 0 0-5.8 2.5 9.5 9.5 0 0 0-2.2 5.9v4.3a10.7 10.7 0 0 0 2.1 6.1 7 7 0 0 0 5.9 2.6Zm21.5 3.8a1.3 1.3 0 0 1-.9-.4 1.1 1.1 0 0 1-.4-.9V61.4a1.2 1.2 0 0 1 .4-1 1.2 1.2 0 0 1 .9-.3h2.5a1.4 1.4 0 0 1 1.3 1.3v36.9a1.1 1.1 0 0 1-.4.9 1.3 1.3 0 0 1-.9.4Zm23.7.5a12.3 12.3 0 0 1-9.1-3.5c-2.3-2.4-3.5-5.6-3.8-9.7v-3.7c.3-4 1.5-7.2 3.8-9.5a12 12 0 0 1 9.1-3.6c4.2 0 7.3 1.3 9.6 3.9s3.4 6.1 3.4 10.5v1a1.3 1.3 0 0 1-.4 1 1.2 1.2 0 0 1-.9.3h-19.5v.5a10.9 10.9 0 0 0 2.3 6.2 6.8 6.8 0 0 0 5.5 2.6 8.1 8.1 0 0 0 4.3-1.1 11 11 0 0 0 2.5-2.1 1.9 1.9 0 0 1 .8-.8l.9-.2h2.5a1.1 1.1 0 0 1 .8.3.8.8 0 0 1 .4.7 5 5 0 0 1-1.5 3 13.5 13.5 0 0 1-4.3 3 15.9 15.9 0 0 1-6.4 1.2Zm7.9-17.1a9.7 9.7 0 0 0-2.1-6.4 7.5 7.5 0 0 0-5.8-2.4 7.2 7.2 0 0 0-5.7 2.4 9.7 9.7 0 0 0-2.1 6.4h15.7Zm37.3 17.1a12.5 12.5 0 0 1-9.2-3.5 14.9 14.9 0 0 1-3.7-9.7v-3.7a14.4 14.4 0 0 1 3.7-9.5 12.2 12.2 0 0 1 9.2-3.6c4.1 0 7.3 1.3 9.5 3.9s3.4 6.1 3.4 10.5v1a1.1 1.1 0 0 1-1.3 1.3h-19.4v.5a10.2 10.2 0 0 0 2.2 6.2 6.8 6.8 0 0 0 5.5 2.6 7.8 7.8 0 0 0 4.3-1.1 9.2 9.2 0 0 0 2.5-2.1 1.9 1.9 0 0 1 .8-.8l1-.2h2.4a1.4 1.4 0 0 1 .9.3 1 1 0 0 1 .4.7c0 .9-.6 1.8-1.6 3a13.5 13.5 0 0 1-4.3 3 15.4 15.4 0 0 1-6.3 1.2Zm7.8-17.1a9.7 9.7 0 0 0-2.1-6.4 7.2 7.2 0 0 0-5.7-2.4 7 7 0 0 0-5.7 2.4 9.7 9.7 0 0 0-2.1 6.4h15.6Zm13.3 16.6a1.8 1.8 0 0 1-1-.4 1.4 1.4 0 0 1-.3-.9V71.9a1.6 1.6 0 0 1 .3-.9 1.7 1.7 0 0 1 1-.3h2.4a1.2 1.2 0 0 1 .9.3 1 1 0 0 1 .4.9v2.5a12 12 0 0 1 3.9-3.2 12.5 12.5 0 0 1 5.5-1.1c3.6 0 6.4 1.1 8.3 3.4a13.2 13.2 0 0 1 3 9v15.8a1.4 1.4 0 0 1-.3.9 1.8 1.8 0 0 1-1 .4h-2.5a1.8 1.8 0 0 1-1-.4 1.4 1.4 0 0 1-.3-.9V82.9a8.9 8.9 0 0 0-2-6.2 7.1 7.1 0 0 0-5.6-2.3 7.5 7.5 0 0 0-5.7 2.3 8.8 8.8 0 0 0-2.2 6.2v15.4a1.4 1.4 0 0 1-.3.9 1.8 1.8 0 0 1-.9.4Z" style="fill:#fff"/></g></g></g></g></svg>