<svg xmlns="http://www.w3.org/2000/svg" viewBox="0 0 834.8 267.4"><defs><linearGradient id="linear-gradient" x1="141.09" y1="-795.34" x2="36.18" y2="-690.43" gradientTransform="matrix(1 0 0 -.99 -10.42 -579.59)" gradientUnits="userSpaceOnUse"><stop offset="0" stop-color="#00a0ff"/><stop offset=".01" stop-color="#00a1ff"/><stop offset=".26" stop-color="#00beff"/><stop offset=".51" stop-color="#00d2ff"/><stop offset=".76" stop-color="#00dfff"/><stop offset="1" stop-color="#00e3ff"/></linearGradient><linearGradient id="linear-gradient-2" x1="216.33" y1="-724.75" x2="65.07" y2="-724.75" gradientTransform="matrix(1 0 0 -.99 -10.42 -579.59)" gradientUnits="userSpaceOnUse"><stop offset="0" stop-color="#ffe000"/><stop offset=".41" stop-color="#ffbd00"/><stop offset=".78" stop-color="orange"/><stop offset="1" stop-color="#ff9c00"/></linearGradient><linearGradient id="linear-gradient-3" x1="107.86" y1="-762.56" x2="-34.41" y2="-620.29" gradientTransform="matrix(1 0 0 -.99 -10.42 -579.59)" gradientUnits="userSpaceOnUse"><stop offset="0" stop-color="#ff3a44"/><stop offset="1" stop-color="#c31162"/></linearGradient><linearGradient id="linear-gradient-4" x1="-1.7" y1="-796.52" x2="61.82" y2="-732.99" gradientTransform="matrix(1 0 0 -.99 -10.42 -579.59)" gradientUnits="userSpaceOnUse"><stop offset="0" stop-color="#32a071"/><stop offset=".07" stop-color="#2da771"/><stop offset=".48" stop-color="#15cf74"/><stop offset=".8" stop-color="#06e775"/><stop offset="1" stop-color="#00f076"/></linearGradient><style>.cls-1{fill:#fff}</style></defs><g id="Layer_2" data-name="Layer 2"><g id="Layer_1-2" data-name="Layer 1"><g id="google_play" data-name="google play"><path d="M834.8 243.4a24 24 0 0 1-24.1 24H24.1a24 24 0 0 1-24.1-24V24A24.1 24.1 0 0 1 24.1 0h786.6a24 24 0 0 1 24 24v219.4Z"/><path id="path46" class="cls-1" d="M421.4 149.3c-14.7 0-26.8 11-26.8 26.3s12.1 26.4 26.8 26.4 26.7-11.2 26.7-26.4-12-26.3-26.7-26.3Zm0 42.3c-8.1 0-15.1-6.6-15.1-16s7-15.9 15.1-15.9 15 6.4 15 15.9-7 16-15 16ZM363 149.3c-14.7 0-26.7 11-26.7 26.3s12 26.4 26.7 26.4 26.8-11.2 26.8-26.4-12-26.3-26.8-26.3Zm0 42.3c-8.1 0-15-6.6-15-16s6.9-15.9 15-15.9 15 6.4 15 15.9-6.9 16-15 16Zm-69.4-34.2v11.1h27c-.8 6.3-2.9 10.9-6.1 14.1s-10.1 8.2-20.9 8.2a29.8 29.8 0 0 1 0-59.5 29.1 29.1 0 0 1 20.4 8l8-7.9a39.8 39.8 0 0 0-28.4-11.3c-22.8 0-42 18.4-42 40.9s19.2 41 42 41c12.3 0 21.6-4 28.9-11.5s9.8-17.8 9.8-26.2a34.7 34.7 0 0 0-.6-6.9Zm283.9 8.6c-2.2-5.9-9-16.7-22.8-16.7s-25.1 10.7-25.1 26.3A25.9 25.9 0 0 0 556 202a26.5 26.5 0 0 0 22.2-11.7l-9.1-6c-3 4.4-7.1 7.3-13.1 7.3s-10.2-2.7-12.9-8l35.6-14.6Zm-36.3 8.8a14.5 14.5 0 0 1 13.9-15.4c4.6 0 8.6 2.3 9.9 5.6Zm-29 25.6h11.7v-77.5h-11.7ZM493 155.1h-.4c-2.6-3-7.7-5.8-14-5.8-13.4 0-25.6 11.6-25.6 26.4s12.2 26.3 25.6 26.3a18.6 18.6 0 0 0 14-6h.4v3.8c0 10-5.5 15.4-14.2 15.4-7.2 0-11.6-5.1-13.5-9.4l-10.2 4.2a25.6 25.6 0 0 0 23.7 15.6c13.7 0 25.3-8 25.3-27.4v-47.3H493Zm-13.4 36.5c-8.1 0-14.8-6.7-14.8-15.9s6.7-16 14.8-16 14.2 6.7 14.2 16-6.3 15.9-14.2 15.9Zm152.8-68.7h-28.1v77.5H616V171h16.4c12.9 0 25.7-9.3 25.7-24s-12.8-24.1-25.7-24.1Zm.3 37.4H616v-26.6h16.7a13.3 13.3 0 1 1 0 26.6Zm72.2-11.2c-8.4 0-17.2 3.7-20.8 11.9l10.3 4.3c2.3-4.3 6.4-5.7 10.7-5.7 6.1 0 12.2 3.6 12.3 9.9v.9a25.8 25.8 0 0 0-12.2-3c-11.2 0-22.5 6-22.5 17.4s9.1 17 19.4 17c7.9 0 12.2-3.5 14.9-7.6h.4v6h11.3v-29.7c0-13.7-10.4-21.4-23.8-21.4Zm-1.4 42.5c-3.8 0-9.2-1.9-9.2-6.6s6.7-8.3 12.4-8.3a20.8 20.8 0 0 1 10.7 2.6 14.1 14.1 0 0 1-13.9 12.3Zm66.3-40.8-13.4 33.6h-.4l-13.9-33.6h-12.6l20.9 46.9-11.9 26.1h12.2l32.1-73Zm-105.3 49.6h11.7v-77.5h-11.7Z"/><g id="g48"><path id="path64" d="M59.8 61.2c-1.8 2-2.9 4.9-2.9 8.8v136.9c0 3.9 1.1 6.8 2.9 8.7l.5.4 77.6-76.7v-1.8L60.3 60.8Z" style="fill:url(#linear-gradient)"/></g><g id="g66"><path id="path78" d="m163.8 164.9-25.9-25.6v-1.8l25.9-25.6.6.4 30.6 17.2c8.8 4.9 8.8 12.9 0 17.9l-30.6 17.2Z" style="fill:url(#linear-gradient-2)"/></g><g id="g80"><path id="path88" d="m164.4 164.6-26.5-26.2-78.1 77.2c2.9 3.1 7.7 3.4 13 .4l91.6-51.4" style="fill:url(#linear-gradient-3)"/></g><g id="g90"><path id="path104" d="M164.4 112.3 72.8 60.9c-5.3-3-10.1-2.7-13 .3l78.1 77.2Z" style="fill:url(#linear-gradient-4)"/></g><path class="cls-1" d="M255.3 61.4h13.8a26.3 26.3 0 0 1 7.1.7 13 13 0 0 1 5.6 3.4 17.4 17.4 0 0 1 3.5 6.1 27.5 27.5 0 0 1 1.2 8.8 23.6 23.6 0 0 1-1.1 7.9 15.6 15.6 0 0 1-4 6.5 12.9 12.9 0 0 1-5.3 3 22.7 22.7 0 0 1-6.6.8h-14.2Zm7.6 6.3v24.6h5.6a23.4 23.4 0 0 0 4.5-.3 6.2 6.2 0 0 0 3-1.6 7.6 7.6 0 0 0 2-3.6 23.8 23.8 0 0 0 .8-6.8 22.3 22.3 0 0 0-.8-6.6 9 9 0 0 0-2.1-3.6 6.1 6.1 0 0 0-3.5-1.7 28.4 28.4 0 0 0-6.2-.4ZM292.7 98.6V61.4h7.5v37.2ZM305.4 86.5l7.4-.7a9.2 9.2 0 0 0 2.6 5.4 8.6 8.6 0 0 0 5.5 1.7 8.3 8.3 0 0 0 5.4-1.5 4.4 4.4 0 0 0 1.9-3.6 3.8 3.8 0 0 0-.8-2.3 6.6 6.6 0 0 0-2.7-1.6l-6-1.6c-4-1-6.9-2.2-8.5-3.7a9.8 9.8 0 0 1-1.8-12.8 10 10 0 0 1 4.6-3.7 18.5 18.5 0 0 1 7.4-1.3c4.6 0 8.2 1 10.5 3a10.7 10.7 0 0 1 3.7 8.2l-7.5.4a6.3 6.3 0 0 0-2.1-4.2 7.6 7.6 0 0 0-4.7-1.2 8.4 8.4 0 0 0-5.1 1.3 2.8 2.8 0 0 0-1.2 2.3 2.7 2.7 0 0 0 1.1 2.3c.9.8 3.2 1.6 6.9 2.5a31.5 31.5 0 0 1 8.1 2.7 10.5 10.5 0 0 1 4.1 3.7 11.7 11.7 0 0 1-.3 12 10.7 10.7 0 0 1-5 4.1 21.4 21.4 0 0 1-8.1 1.4q-7.1 0-10.8-3.3c-2.6-2.2-4.1-5.3-4.6-9.5ZM342 98.6V61.4h12.1c4.5 0 7.5.2 8.9.6a9.6 9.6 0 0 1 5.4 3.6 11.8 11.8 0 0 1 2.1 7.2 12.8 12.8 0 0 1-1.2 5.8 10.6 10.6 0 0 1-3.2 3.7 9.5 9.5 0 0 1-3.9 1.7 38.3 38.3 0 0 1-7.8.6h-4.9v14Zm7.5-30.9v10.5h4.1c3 0 5-.1 6-.5a4.3 4.3 0 0 0 2.3-1.9 5.1 5.1 0 0 0-.3-6.2 5.6 5.6 0 0 0-3-1.7l-5.4-.2ZM375.2 80.2a22.4 22.4 0 0 1 1.7-9.5 17.5 17.5 0 0 1 3.4-5.1 16.9 16.9 0 0 1 4.8-3.4 22.5 22.5 0 0 1 8.1-1.4c5.4 0 9.8 1.7 13.1 5.1s4.9 8.1 4.9 14.1-1.6 10.8-4.8 14.1-7.7 5.1-13.1 5.1-10-1.7-13.2-5-4.9-8-4.9-14Zm7.7-.2c0 4.2 1 7.4 2.9 9.5a9.5 9.5 0 0 0 7.4 3.3 9.6 9.6 0 0 0 7.4-3.2c1.9-2.2 2.9-5.4 2.9-9.7s-1-7.5-2.8-9.6a9.6 9.6 0 0 0-7.5-3.1 9.3 9.3 0 0 0-7.5 3.2c-1.9 2.1-2.8 5.3-2.8 9.6ZM417.2 98.6V61.4h7.3l15.2 24.8V61.4h7v37.2h-7.5l-15-24.3v24.3ZM454.4 98.6V61.4h7.5v37.2ZM469.1 61.4H484a37.1 37.1 0 0 1 6.6.4 9 9 0 0 1 6.7 4.6 8.3 8.3 0 0 1 1.2 4.4 8.9 8.9 0 0 1-5.3 8 10.4 10.4 0 0 1 5.3 3.4 9.1 9.1 0 0 1 1.8 5.6 10.7 10.7 0 0 1-1.2 4.9 11.2 11.2 0 0 1-3.2 3.9 11.4 11.4 0 0 1-5.1 1.7 77 77 0 0 1-9 .3h-12.7Zm7.5 6.2v8.6H487a4.7 4.7 0 0 0 3-1.4 3.6 3.6 0 0 0 1.1-2.9 4.3 4.3 0 0 0-.9-2.8 4.6 4.6 0 0 0-2.8-1.3h-10.8Zm0 14.8v9.9h7a28.6 28.6 0 0 0 5.1-.2 4.8 4.8 0 0 0 2.8-1.5 4.5 4.5 0 0 0 1-3.1 5.2 5.2 0 0 0-.8-2.9 4.5 4.5 0 0 0-2.3-1.7 30 30 0 0 0-6.7-.5ZM506.8 98.6V61.7h7.5v30.6H533v6.3ZM538.4 98.6V61.4H566v6.3h-20.1v8.2h18.7v6.3h-18.7v10.1h20.8v6.3ZM587.5 98.6V61.4h27.6v6.3H595v8.2h18.7v6.3H595v10.1h20.8v6.3ZM622.2 98.6V61.4h7.3l15.3 24.8V61.4h6.9v37.2h-7.5l-15-24.3v24.3Z"/></g></g></g></svg>